<svg width="128" height="174" viewBox="0 0 128 174" fill="none" xmlns="http://www.w3.org/2000/svg">
<g opacity="0.2" clip-path="url(#clip0_262_321)">
<path d="M213.787 85.5274C230.984 74.9998 240.399 64.9863 238.254 57.6716C235.969 49.8428 220.896 46.5657 198.341 47.6045C198.405 47.7223 198.458 47.8401 198.511 47.9579C184.015 19.0632 154.435 0 121.002 0C82.9145 0 50.2497 24.6858 38.6997 59.5351C38.7637 59.3316 38.8278 59.1174 38.9025 58.9139C-7.77823 63.2299 -13.8095 80.5582 28.2171 98.711C11.02 109.239 1.60488 119.252 3.75051 126.567C6.22705 135.06 23.7443 138.187 49.5346 136.281C58.6508 149.571 71.1616 159.928 85.4764 166.385C96.322 171.28 108.342 174 121.002 174C154.435 174 184.197 154.905 198.693 125.678C200.23 125.41 239.93 123.536 241.926 109.646C243.004 102.095 232.286 93.5169 213.787 85.5274ZM199.269 49.4894C217.641 48.547 229.618 50.8709 231.336 56.7612C234.144 66.3571 208.599 79.9049 207.489 80.676C206.688 69.388 203.731 58.6997 199.035 49.0075C199.109 49.1681 199.195 49.3288 199.269 49.4894ZM38.2513 60.9059C38.4755 60.167 34.2803 71.7976 34.2803 86.9947C34.2803 89.3722 34.3764 91.3856 34.5152 93.3027C34.5152 93.3027 34.5152 93.3027 34.5045 93.3027C-3.42293 78.6304 -2.77176 64.4722 38.2513 60.9059ZM9.0772 122.069C7.42262 116.403 15.5354 108.371 30.3734 99.6214C33.0741 100.735 34.9101 101.442 35.5186 101.678C37.1732 111.477 40.4717 120.709 45.1045 129.105C44.0797 129.084 12.0448 132.211 9.0772 122.069ZM236.012 105.951C234.528 116.264 203.219 117.764 202.066 117.956C205.674 108.446 207.478 98.7324 207.702 89.0937C208.845 88.4405 209.987 87.8086 211.78 86.7376C227.686 93.3027 236.855 100.103 236.012 105.951Z" fill="url(#paint0_radial_262_321)"/>
<path d="M193.163 86.9947C193.163 89.5222 193.035 92.0175 192.779 94.4808C192.534 96.9118 192.16 99.3108 191.68 101.678C190.516 107.332 188.701 112.741 186.31 117.817C183.855 123.054 180.781 127.948 177.205 132.404C173.554 136.955 169.359 141.046 164.715 144.591C158.406 149.421 151.276 153.234 143.579 155.772C136.48 158.128 128.88 159.392 120.991 159.392C110.455 159.392 100.453 157.122 91.433 153.052C82.2207 148.897 74.0438 142.867 67.3721 135.435C56.6867 123.536 49.8762 108.05 48.9475 91.0001C48.8727 89.6721 48.8407 88.3334 48.8407 86.984C48.8407 80.601 49.6627 74.4108 51.2105 68.5098C52.3634 64.0974 53.9326 59.8564 55.8434 55.8189C67.4468 31.433 92.255 14.5759 121.002 14.5759C144.839 14.5759 165.986 26.1745 179.115 44.0489C181.229 46.9298 183.14 49.9821 184.826 53.1629C189.47 61.9662 192.363 71.8512 193.014 82.3467C193.11 83.8996 193.163 85.4418 193.163 86.9947Z" fill="url(#paint1_radial_262_321)"/>
<path d="M90.3012 124.414C90.2051 124.436 90.109 124.457 90.013 124.479C87.4617 124.907 87.0454 121.501 87.8887 118.513C88.5399 116.221 89.9916 114.079 91.358 114.058C91.7743 114.047 92.1799 114.24 92.5536 114.679C97.0583 120.013 92.8845 123.772 90.3012 124.414Z" fill="#3D3789"/>
<path d="M91.4437 153.063C82.2314 148.908 74.0545 142.878 67.3828 135.445C68.5891 134.974 69.9874 134.696 71.61 134.664C72.069 134.653 72.5494 134.664 73.0404 134.696C85.7754 135.553 86.2024 143.638 89.597 147.901C90.3656 148.865 90.8459 149.711 91.1341 150.46C91.5718 151.564 91.5718 152.431 91.4437 153.063Z" fill="#4A3E9E"/>
<g opacity="0.75">
<path d="M106.996 146.615C101.019 141.014 94.2828 139.172 94.5497 134.728C94.571 134.439 94.6137 134.149 94.6885 133.839C95.9587 128.73 108.736 133.153 114.213 133.839C121.002 134.696 126.948 134.696 128.218 143.638C129.488 152.581 113.359 152.581 106.996 146.615Z" fill="#4A3E9E"/>
<path d="M78.6553 107.375C78.6233 107.397 78.5913 107.418 78.5593 107.439C70.6386 111.777 59.8784 101.903 60.7324 98.0685C60.8819 97.4259 61.0633 96.944 61.3195 96.5799C62.5791 94.7914 65.4079 96.0872 71.7701 96.7941C79.3492 97.6401 83.1708 104.783 78.6553 107.375Z" fill="#4A3E9E"/>
<path d="M60.7216 84.4458C60.4334 84.6279 60.1558 84.7564 59.889 84.8421C57.1776 85.6988 56.3663 81.1366 55.2028 77.6345C54.1246 74.4002 55.1707 73.2863 56.5371 73.5327C56.7933 73.5755 57.0601 73.6719 57.327 73.8004C61.5756 75.9209 64.1162 82.3146 60.7216 84.4458Z" fill="#4A3E9E"/>
<path d="M126.094 121.919C126.094 121.93 126.094 121.94 126.083 121.951C125.197 125.742 116.54 124.404 114.202 123.622C111.651 122.765 105.726 118.727 107.413 114.679C108.011 113.244 108.907 112.741 109.975 112.805C112.676 112.933 116.433 116.628 118.878 117.239C123.489 118.385 126.745 118.984 126.094 121.919Z" fill="#4A3E9E"/>
<path d="M68.7916 120.216C68.5034 120.719 68.1725 121.105 67.7882 121.383C65.9521 122.733 63.1874 121.49 60.7215 119.37C58.6719 117.603 57.8287 114.615 58.768 113.79C59.1843 113.415 59.9636 113.48 61.1485 114.261C64.9701 116.81 70.4889 117.228 68.7916 120.216Z" fill="#4A3E9E"/>
<path d="M90.3013 124.414C89.8316 123.879 89.4153 123.204 89.1697 122.347C88.4866 119.97 90.5254 115.686 91.3687 114.058C91.785 114.047 92.1907 114.24 92.5643 114.679C97.0584 120.013 92.8845 123.772 90.3013 124.414Z" fill="#4A3E9E"/>
</g>
<g opacity="0.7">
<path d="M96.8021 120.216C95.9481 120.216 95.5318 123.622 96.3751 124.05C97.2291 124.478 100.197 120.216 96.8021 120.216Z" fill="#3D3789"/>
<path d="M65.8133 84.8636C62.9738 86.0095 64.9593 88.2692 67.0836 89.126C69.2186 89.9721 70.0619 83.1607 65.8133 84.8636Z" fill="#3D3789"/>
<path d="M58.1808 63.5728C56.4621 63.9155 57.3268 66.55 59.8781 66.9784C62.4187 67.4068 62.4186 62.7267 58.1808 63.5728Z" fill="#3D3789"/>
<path d="M106.143 104.88C104.253 105.929 106.569 109.56 109.537 108.714C112.515 107.868 109.964 102.749 106.143 104.88Z" fill="#3D3789"/>
</g>
<path d="M55.2028 77.6237C54.1246 74.3894 55.1707 73.2756 56.5371 73.5219C55.1921 76.4564 58.3198 82.2396 59.8996 84.8313C57.1776 85.6881 56.3663 81.1258 55.2028 77.6237Z" fill="#3D3789"/>
<path d="M67.7882 121.373C65.9521 122.722 63.1874 121.48 60.7215 119.359C58.6719 117.592 57.8287 114.604 58.768 113.78C59.7821 118.353 64.7886 120.495 67.7882 121.373Z" fill="#3D3789"/>
<path d="M78.6553 107.375C78.6233 107.397 78.5913 107.418 78.5593 107.439C70.6386 111.777 59.8784 101.903 60.7324 98.0685C60.8819 97.4259 61.0633 96.944 61.3195 96.5798C62.5044 98.1863 64.4259 100.243 67.5215 102.759C72.3252 106.668 76.1574 107.472 78.6553 107.375Z" fill="#3D3789"/>
<path d="M107.413 114.679C108.011 113.244 108.907 112.741 109.975 112.805C108.448 114.861 107.947 117.496 111.234 120.216C116.38 124.457 122.806 123.086 126.083 121.951C125.197 125.742 116.54 124.404 114.202 123.622C111.661 122.765 105.737 118.727 107.413 114.679Z" fill="#3D3789"/>
<path d="M128.218 143.638C129.488 152.581 113.359 152.581 106.996 146.615C101.019 141.014 94.2828 139.172 94.5497 134.728C98.5954 137.137 105.256 142.299 112.942 147.044C123.969 153.855 128.218 143.638 128.218 143.638Z" fill="#3D3789"/>
<path d="M91.1338 150.45C91.5714 151.563 91.5821 152.431 91.4433 153.052C82.231 148.897 74.0542 142.867 67.3824 135.435C68.5887 134.963 69.9871 134.685 71.6096 134.653C73.1895 136.838 75.4205 139.515 78.5589 142.781C81.5372 145.877 85.9565 148.425 91.1338 150.45Z" fill="#3D3789"/>
<path opacity="0.35" d="M193.163 86.9947C193.163 89.5222 193.035 92.0175 192.779 94.4808C192.534 96.9118 192.16 99.3108 191.68 101.678C189.321 113.148 184.261 123.622 177.205 132.404C173.554 136.955 169.359 141.046 164.715 144.591C158.406 149.421 151.276 153.234 143.579 155.772C136.481 158.128 128.88 159.392 120.991 159.392C110.455 159.392 100.453 157.122 91.4331 153.052C82.2207 148.897 74.0439 142.867 67.3722 135.435C56.6867 123.536 49.8762 108.05 48.9475 91.0001C69.0054 152.356 191.68 142.139 184.827 53.1736C189.47 61.9769 192.363 71.862 193.014 82.3574C193.11 83.8996 193.163 85.4418 193.163 86.9947Z" fill="url(#paint2_linear_262_321)"/>
<path opacity="0.55" d="M186.31 117.817C183.855 123.054 180.781 127.948 177.205 132.404C173.554 136.955 169.359 141.046 164.715 144.591C158.406 149.421 151.276 153.234 143.579 155.772C136.48 158.128 128.88 159.392 120.991 159.392C110.455 159.392 100.453 157.122 91.433 153.052C82.2207 148.897 74.0438 142.867 67.3721 135.435C56.6867 123.536 49.8762 108.05 48.9475 91.0001C48.8727 89.6721 48.8407 88.3334 48.8407 86.9839C48.8407 80.601 49.6627 74.4108 51.2105 68.5098C65.899 98.8181 105.876 156.383 186.31 117.817Z" fill="url(#paint3_linear_262_321)"/>
<path d="M198.213 85.7739C196.579 85.067 194.871 84.3709 193.089 83.6747C192.395 83.407 191.69 83.1286 190.975 82.8608C190.335 83.2143 189.684 83.5676 189.011 83.9104C190.441 84.4137 191.818 84.9278 193.153 85.4311C194.316 85.881 195.448 86.3307 196.537 86.7805C209.784 92.2425 217.406 97.8972 216.701 102.77C215.933 108.114 205.247 111.531 188.456 112.762C175.209 113.737 158.15 113.341 139.16 111.488C133.684 110.942 128.037 110.288 122.283 109.506C121.013 109.335 119.732 109.153 118.44 108.96C92.5112 105.201 69.315 99.6215 52.6304 93.6026C51.9258 93.3456 51.232 93.0886 50.5488 92.8315C50.0257 92.6388 49.524 92.446 49.0116 92.2532C33.9922 86.4486 25.2069 80.3226 25.9542 75.1177C26.6907 69.9878 36.5328 66.6464 52.1286 65.2969C52.2994 64.74 52.4809 64.1832 52.6731 63.637C33.6293 65.3933 21.3426 69.8914 20.3712 76.6813C19.4639 82.9679 28.388 90.1005 43.781 96.762C44.3681 97.019 44.9659 97.2653 45.5743 97.5224C46.9514 98.09 48.3818 98.6683 49.8442 99.2252C64.6394 104.901 84.0462 110.085 105.833 113.865C109.634 114.529 113.519 115.15 117.458 115.718C119.241 115.975 121.002 116.221 122.763 116.446C146.59 119.595 168.516 120.42 185.638 119.199C206.753 117.699 220.566 113.073 221.601 105.854C222.53 99.5679 213.606 92.4246 198.213 85.7739Z" fill="url(#paint4_linear_262_321)"/>
<path d="M179.116 44.0704C171.665 36.9592 153.058 18.9134 115.27 22.469C81.0252 25.7033 62.8887 45.8696 55.8434 55.8296C67.4468 31.4437 92.255 14.5867 121.002 14.5867C144.839 14.5974 165.986 26.1959 179.116 44.0704Z" fill="url(#paint5_linear_262_321)"/>
</g>
<defs>
<radialGradient id="paint0_radial_262_321" cx="0" cy="0" r="1" gradientUnits="userSpaceOnUse" gradientTransform="translate(120.999 86.9961) scale(81.8529 82.1206)">
<stop stop-color="#C7F1F6"/>
<stop offset="1" stop-color="#D3F4F9" stop-opacity="0"/>
</radialGradient>
<radialGradient id="paint1_radial_262_321" cx="0" cy="0" r="1" gradientUnits="userSpaceOnUse" gradientTransform="translate(110.814 48.6673) scale(127.212 127.628)">
<stop stop-color="#31E7C2"/>
<stop offset="1" stop-color="#652FB0"/>
</radialGradient>
<linearGradient id="paint2_linear_262_321" x1="157.953" y1="189.231" x2="103.304" y2="39.0106" gradientUnits="userSpaceOnUse">
<stop stop-color="#4A3E9E"/>
<stop offset="1" stop-color="#4AE09E" stop-opacity="0.5"/>
</linearGradient>
<linearGradient id="paint3_linear_262_321" x1="123.75" y1="174.793" x2="113.78" y2="61.2319" gradientUnits="userSpaceOnUse">
<stop stop-color="#3D3789"/>
<stop offset="1" stop-color="#3DCC5E" stop-opacity="0.2"/>
</linearGradient>
<linearGradient id="paint4_linear_262_321" x1="118.77" y1="131.31" x2="122.615" y2="62.7455" gradientUnits="userSpaceOnUse">
<stop stop-color="#83ECEC"/>
<stop offset="1" stop-color="#8EE2D3" stop-opacity="0.3"/>
</linearGradient>
<linearGradient id="paint5_linear_262_321" x1="117.24" y1="3.48525" x2="117.452" y2="43.7851" gradientUnits="userSpaceOnUse">
<stop stop-color="#C7F1F6"/>
<stop offset="1" stop-color="#D3F4F9" stop-opacity="0"/>
</linearGradient>
<clipPath id="clip0_262_321">
<rect width="242" height="174" fill="white"/>
</clipPath>
</defs>
</svg>
